<svg xmlns="http://www.w3.org/2000/svg" version="1.1" xmlns:xlink="http://www.w3.org/1999/xlink" xmlns:svgjs="http://svgjs.dev/svgjs" width="120" height="32" viewBox="0 0 2000 540"><g transform="matrix(1,0,0,1,-1.2121212121213603,0.4164904228765067)"><svg viewBox="0 0 396 107" data-background-color="#ffffff" preserveAspectRatio="xMidYMid meet" height="540" width="2000" xmlns="http://www.w3.org/2000/svg" xmlns:xlink="http://www.w3.org/1999/xlink"><g id="tight-bounds" transform="matrix(1,0,0,1,0.24000000000003752,-0.08252680601441398)"><svg viewBox="0 0 395.5199999999999 107.16505361202884" height="107.16505361202884" width="395.5199999999999"><g><svg viewBox="0 0 567.8873460799118 153.86751084204727" height="107.16505361202884" width="395.5199999999999"><g transform="matrix(1,0,0,1,172.3673460799119,37.7518071546505)"><svg viewBox="0 0 395.52 78.36389653274627" height="78.36389653274627" width="395.52"><g id="textblocktransform"><svg viewBox="0 0 395.52 78.36389653274627" height="78.36389653274627" width="395.52" id="textblock"><g><svg viewBox="0 0 395.52 78.36389653274627" height="78.36389653274627" width="395.52"><g transform="matrix(1,0,0,1,0,0)"><svg width="395.52" viewBox="0.5 -35.5 181.69 36" height="78.36389653274627" data-palette-color="#000000"><path d="M15.15-26.85L16.6-27.15 5.8-1.75Q5.45-0.8 4.73-0.28 4 0.25 3.15 0.25L3.15 0.25Q1.8 0.25 1.15-0.5 0.5-1.25 0.5-2.35L0.5-2.35Q0.5-2.8 0.65-3.3L0.65-3.3 13.1-33.2Q13.5-34.2 14.33-34.75 15.15-35.3 16.1-35.2L16.1-35.2Q17-35.2 17.78-34.68 18.55-34.15 18.9-33.2L18.9-33.2 31.2-3.9Q31.45-3.25 31.45-2.7L31.45-2.7Q31.45-1.35 30.58-0.55 29.7 0.25 28.65 0.25L28.65 0.25Q27.75 0.25 27.03-0.3 26.3-0.85 25.9-1.8L25.9-1.8 15.15-26.85ZM24.55-7.85L7.35-7.85 10.1-13.6 23.6-13.6 24.55-7.85ZM59.65-35.05L59.65-35.05Q60.8-35.05 61.62-34.15 62.45-33.25 62.45-32.25L62.45-32.25Q62.45-31.3 61.8-30.45L61.8-30.45 51.75-17.2 48.35-21.85 57.2-33.6Q58.25-35.05 59.65-35.05ZM37.35-35.15L37.35-35.15Q38.8-35.15 39.8-33.85L39.8-33.85 61.8-4.6Q62.4-3.8 62.4-2.75L62.4-2.75Q62.4-1.35 61.4-0.55 60.4 0.25 59.4 0.25L59.4 0.25Q57.95 0.25 56.95-1.05L56.95-1.05 34.95-30.3Q34.3-31.1 34.3-32.1L34.3-32.1Q34.3-33.4 35.27-34.27 36.25-35.15 37.35-35.15ZM36.9 0.25L36.9 0.25Q35.8 0.25 35-0.58 34.2-1.4 34.2-2.4L34.2-2.4Q34.2-3.5 34.95-4.45L34.95-4.45 45.1-18.2 48.4-13.35 39.4-1.15Q38.4 0.25 36.9 0.25ZM74.7-31.95L74.7-3.05Q74.7-1.75 73.75-0.88 72.8 0 71.55 0L71.55 0Q70.15 0 69.3-0.88 68.45-1.75 68.45-3.05L68.45-3.05 68.45-31.95Q68.45-33.25 69.35-34.13 70.25-35 71.65-35L71.65-35Q72.85-35 73.77-34.13 74.7-33.25 74.7-31.95L74.7-31.95ZM114.39-17.5L114.39-17.5Q114.39-13.75 113.14-10.5 111.89-7.25 109.62-4.78 107.34-2.3 104.22-0.9 101.09 0.5 97.39 0.5L97.39 0.5Q93.69 0.5 90.59-0.9 87.49-2.3 85.22-4.78 82.94-7.25 81.69-10.5 80.44-13.75 80.44-17.5L80.44-17.5Q80.44-21.25 81.69-24.5 82.94-27.75 85.22-30.23 87.49-32.7 90.59-34.1 93.69-35.5 97.39-35.5L97.39-35.5Q101.09-35.5 104.22-34.1 107.34-32.7 109.62-30.23 111.89-27.75 113.14-24.5 114.39-21.25 114.39-17.5ZM107.89-17.5L107.89-17.5Q107.89-20.85 106.54-23.58 105.19-26.3 102.84-27.9 100.49-29.5 97.39-29.5L97.39-29.5Q94.29-29.5 91.94-27.9 89.59-26.3 88.27-23.6 86.94-20.9 86.94-17.5L86.94-17.5Q86.94-14.15 88.27-11.43 89.59-8.7 91.94-7.1 94.29-5.5 97.39-5.5L97.39-5.5Q100.49-5.5 102.84-7.1 105.19-8.7 106.54-11.43 107.89-14.15 107.89-17.5ZM123.74 0L123.74 0Q122.34 0 121.24-0.88 120.14-1.75 120.14-3.05L120.14-3.05 120.14-31.95Q120.14-33.25 121.02-34.13 121.89-35 123.19-35L123.19-35 137.59-35Q140.19-35 142.47-33.63 144.74-32.25 146.14-29.83 147.54-27.4 147.54-24.25L147.54-24.25Q147.54-22.35 146.77-20.55 145.99-18.75 144.67-17.3 143.34-15.85 141.69-15.05L141.69-15.05 141.74-16.2Q143.14-15.45 144.07-14.43 144.99-13.4 145.52-12.23 146.04-11.05 146.14-9.7L146.14-9.7Q146.34-8.45 146.42-7.5 146.49-6.55 146.72-5.9 146.94-5.25 147.59-4.9L147.59-4.9Q148.69-4.25 148.97-3.03 149.24-1.8 148.39-0.85L148.39-0.85Q147.84-0.2 146.99-0.03 146.14 0.15 145.29-0.03 144.44-0.2 143.89-0.5L143.89-0.5Q143.04-1 142.19-1.98 141.34-2.95 140.82-4.6 140.29-6.25 140.29-8.85L140.29-8.85Q140.29-9.7 139.99-10.43 139.69-11.15 139.14-11.68 138.59-12.2 137.74-12.48 136.89-12.75 135.74-12.75L135.74-12.75 125.64-12.75 126.39-13.9 126.39-3.05Q126.39-1.75 125.69-0.88 124.99 0 123.74 0ZM126.39-16.7L125.69-17.9 137.34-17.9Q138.24-17.9 139.09-18.73 139.94-19.55 140.49-20.98 141.04-22.4 141.04-24.1L141.04-24.1Q141.04-26.3 139.87-27.78 138.69-29.25 137.34-29.25L137.34-29.25 125.79-29.25 126.39-30.85 126.39-16.7ZM165.89-26.85L167.34-27.15 156.54-1.75Q156.19-0.8 155.46-0.28 154.74 0.25 153.89 0.25L153.89 0.25Q152.54 0.25 151.89-0.5 151.24-1.25 151.24-2.35L151.24-2.35Q151.24-2.8 151.39-3.3L151.39-3.3 163.84-33.2Q164.24-34.2 165.06-34.75 165.89-35.3 166.84-35.2L166.84-35.2Q167.74-35.2 168.51-34.68 169.29-34.15 169.64-33.2L169.64-33.2 181.94-3.9Q182.19-3.25 182.19-2.7L182.19-2.7Q182.19-1.35 181.31-0.55 180.44 0.25 179.39 0.25L179.39 0.25Q178.49 0.25 177.76-0.3 177.04-0.85 176.64-1.8L176.64-1.8 165.89-26.85ZM175.29-7.85L158.09-7.85 160.84-13.6 174.34-13.6 175.29-7.85Z" opacity="1" transform="matrix(1,0,0,1,0,0)" fill="#000000" class="wordmark-text-0" data-fill-palette-color="primary" id="text-0"></path></svg></g></svg></g></svg></g></svg></g><g><svg viewBox="0 0 153.8675108420473 153.86751084204727" height="153.86751084204727" width="153.8675108420473"><g><svg xmlns="http://www.w3.org/2000/svg" xmlns:xlink="http://www.w3.org/1999/xlink" version="1.1" x="0" y="0" viewBox="4.5 4.5 92.00000000000001 92" enable-background="new 0 0 100 100" xml:space="preserve" height="153.86751084204727" width="153.8675108420473" class="icon-icon-0" data-fill-palette-color="accent" id="icon-0"><path fill-rule="evenodd" clip-rule="evenodd" d="M61.063 95.267l-5.763-5.869 4.146-7.135C73.323 78.361 83.5 65.623 83.5 50.5c0-5.109-1.162-9.946-3.234-14.263l7.986 1.273 3.418-7.527c3.085 6.178 4.83 13.142 4.83 20.517C96.5 72.269 81.374 90.492 61.063 95.267zM78.188 32.555C72.305 23.497 62.105 17.5 50.5 17.5c-14.833 0-27.379 9.787-31.536 23.255l-4.801-6.187-7.88 3.256C11.788 18.587 29.493 4.5 50.5 4.5c16.599 0 31.141 8.794 39.23 21.976l-3.354 7.385L78.188 32.555zM13.036 38.515l4.948 6.375C17.672 46.715 17.5 48.587 17.5 50.5c0 18.226 14.774 33 33 33 1.558 0 3.089-0.116 4.589-0.325l-3.869 6.658 6.055 6.166C55.063 96.326 52.802 96.5 50.5 96.5c-25.405 0-46-20.595-46-46 0-3.014 0.299-5.958 0.853-8.81L13.036 38.515z" fill="#922c88" data-fill-palette-color="accent"></path></svg></g></svg></g></svg></g><defs></defs></svg><rect width="395.5199999999999" height="107.16505361202884" fill="none" stroke="none" visibility="hidden"></rect></g></svg></g></svg>