<svg xmlns="http://www.w3.org/2000/svg" version="1.1" xmlns:xlink="http://www.w3.org/1999/xlink" xmlns:svgjs="http://svgjs.dev/svgjs" width="128" height="128" viewBox="0 0 128 128"><g transform="matrix(0.8046875,0,0,0.8046875,12.760752631578946,12.760752631578946)"><svg viewBox="0 0 95 95" data-background-color="#ffffff" preserveAspectRatio="xMidYMid meet" height="128" width="128" xmlns="http://www.w3.org/2000/svg" xmlns:xlink="http://www.w3.org/1999/xlink"><g id="tight-bounds" transform="matrix(1,0,0,1,-0.24049999999999727,-0.24049999999999727)"><svg viewBox="0 0 95.481 95.48099999999998" height="95.48099999999998" width="95.481"><g><svg viewBox="0 0 95.481 95.48099999999998" height="95.48099999999998" width="95.481"><g><svg viewBox="0 0 95.481 95.48099999999998" height="95.48099999999998" width="95.481"><g id="textblocktransform"><svg viewBox="0 0 95.481 95.48099999999998" height="95.48099999999998" width="95.481" id="textblock"><g><svg viewBox="0 0 95.481 95.48099999999998" height="95.48099999999998" width="95.481"><g><svg viewBox="0 0 95.481 95.48099999999998" height="95.48099999999998" width="95.481"><g><svg xmlns="http://www.w3.org/2000/svg" xmlns:xlink="http://www.w3.org/1999/xlink" version="1.1" x="0" y="0" viewBox="4.5 4.5 92.00000000000001 92" enable-background="new 0 0 100 100" xml:space="preserve" height="95.48099999999998" width="95.481" class="icon-icon-0" data-fill-palette-color="accent" id="icon-0"><path fill-rule="evenodd" clip-rule="evenodd" d="M61.063 95.267l-5.763-5.869 4.146-7.135C73.323 78.361 83.5 65.623 83.5 50.5c0-5.109-1.162-9.946-3.234-14.263l7.986 1.273 3.418-7.527c3.085 6.178 4.83 13.142 4.83 20.517C96.5 72.269 81.374 90.492 61.063 95.267zM78.188 32.555C72.305 23.497 62.105 17.5 50.5 17.5c-14.833 0-27.379 9.787-31.536 23.255l-4.801-6.187-7.88 3.256C11.788 18.587 29.493 4.5 50.5 4.5c16.599 0 31.141 8.794 39.23 21.976l-3.354 7.385L78.188 32.555zM13.036 38.515l4.948 6.375C17.672 46.715 17.5 48.587 17.5 50.5c0 18.226 14.774 33 33 33 1.558 0 3.089-0.116 4.589-0.325l-3.869 6.658 6.055 6.166C55.063 96.326 52.802 96.5 50.5 96.5c-25.405 0-46-20.595-46-46 0-3.014 0.299-5.958 0.853-8.81L13.036 38.515z" fill="#922c88" data-fill-palette-color="accent"></path></svg></g></svg></g></svg></g></svg></g></svg></g></svg></g><defs></defs></svg><rect width="95.481" height="95.48099999999998" fill="none" stroke="none" visibility="hidden"></rect></g></svg></g></svg>